<?xml version="1.0" encoding="UTF-8"?>
<svg width="51px" height="29px" viewBox="0 0 51 29" version="1.1" xmlns="http://www.w3.org/2000/svg" xmlns:xlink="http://www.w3.org/1999/xlink">
    <title>logo_color</title>
    <g id="Page-1" stroke="none" stroke-width="1" fill="none" fill-rule="evenodd">
        <g id="logo_color" transform="translate(0.000000, 0.000000)" fill-rule="nonzero">
            <g id="logo_1_">
                <path d="M16.71237,28.3 C16.91237,28.5 17.31237,28.5 17.61237,28.3 L23.41237,22.5 C23.61237,22.3 23.61237,21.9 23.41237,21.7 L20.91237,19.2 C20.71237,19 20.41237,19 20.11237,19.2 L17.21237,22.1 L8.11236999,13 L4.81236999,16.3 L16.71237,28.3 Z" id="light-green" fill="#D9D803"></path>
                <path d="M16.31237,5 L13.81237,2.5 C10.61237,-0.7 5.51236999,-0.7 2.41236999,2.5 C-0.764750133,5.65906922 -0.809333518,10.7861584 2.31236999,14 L4.81236999,16.5 L8.11236999,13.2 L5.61236999,10.7 C4.31236999,9.4 4.31236999,7.2 5.71236999,5.8 C7.01236999,4.5 9.21236999,4.5 10.61237,5.8 L13.11237,8.3 L18.91237,14.1 L22.21237,10.8 L16.31237,5 L16.31237,5 Z" id="dark-green" fill="#63B6B6"></path>
                <path d="M48.31237,2.5 C45.11237,-0.7 40.01237,-0.7 36.81237,2.5 L36.11237,3.2 L39.41237,6.5 L40.11237,5.8 C41.41237,4.5 43.71237,4.5 45.01237,5.8 C46.41237,7.2 46.31237,9.4 45.01237,10.7 L44.31237,11.4 L33.41237,22.3 L36.71237,25.6 L47.61237,14.7 L48.31237,14 C51.51237,10.8 51.51237,5.7 48.31237,2.5 L48.31237,2.5 Z" id="red" fill="#E16967"></path>
                <path d="M33.51237,22.2 L28.81237,17.5 L22.01237,10.7 L18.71237,14 L25.51237,20.8 L30.21237,25.5 L33.01237,28.3 C33.21237,28.5 33.61237,28.5 33.91237,28.3 L36.71237,25.5 L33.51237,22.2 L33.51237,22.2 Z" id="orange" fill="#FFC300"></path>
                <path d="M36.21237,3.1 L33.61237,5.7 L30.31237,2.4 C27.11237,-0.8 22.01237,-0.8 18.91237,2.4 L18.41237,2.9 C18.21237,3.1 18.31237,3.4 18.51237,3.6 L21.01237,6.1 C21.11237,6.2 21.31237,6.3 21.51237,6.3 C21.71237,6.3 21.91237,6.1 21.91237,5.9 C21.91237,5.8 22.01237,5.7 22.21237,5.6 C23.51237,4.3 25.71237,4.3 27.11237,5.6 L30.41237,8.9 L33.21237,11.7 C33.41237,11.9 33.81237,11.9 34.11237,11.7 L39.61237,6.2 L36.21237,3.1 L36.21237,3.1 Z" id="blue" fill="#8CCCEC"></path>
            </g>
        </g>
    </g>
</svg>